<?xml version="1.0" standalone="no"?>
<!DOCTYPE svg PUBLIC "-//W3C//DTD SVG 20010904//EN"
 "http://www.w3.org/TR/2001/REC-SVG-20010904/DTD/svg10.dtd">
<svg version="1.0" xmlns="http://www.w3.org/2000/svg"
 width="200.000000pt" height="200.000000pt" viewBox="0 0 200.000000 200.000000"
 preserveAspectRatio="xMidYMid meet">

<g transform="translate(0.000000,200.000000) scale(0.100000,-0.100000)"
fill="#000000" stroke="none">
<path d="M965 1827 c-46 -18 -71 -35 -63 -43 4 -4 14 -1 23 6 9 7 18 10 21 7
10 -9 -34 -27 -50 -21 -12 5 -18 -2 -22 -25 -4 -17 -10 -29 -14 -26 -4 2 -8
-15 -8 -38 -2 -46 15 -100 29 -91 5 3 6 -3 2 -12 -5 -13 -3 -16 10 -11 10 4
14 2 11 -6 -2 -7 10 -20 27 -29 35 -20 125 -25 113 -6 -4 7 -3 8 4 4 17 -10
70 24 92 59 32 52 30 126 -4 160 -13 13 -22 26 -19 28 5 5 -71 42 -102 50 -11
3 -33 0 -50 -6z m90 -47 c3 -6 -4 -10 -17 -10 -18 0 -20 2 -8 10 19 12 18 12
25 0z m82 -62 c-3 -8 -6 -5 -6 6 -1 11 2 17 5 13 3 -3 4 -12 1 -19z m-74 -137
c-4 -3 -11 -10 -15 -15 -4 -4 -6 1 -5 12 1 12 6 18 15 15 7 -3 10 -9 5 -12z
m33 -17 c-11 -8 -24 -14 -30 -14 -6 0 0 7 12 16 12 8 19 21 16 27 -4 7 -1 7 7
-1 12 -11 11 -15 -5 -28z"/>
<path d="M1695 1620 c-159 -55 -250 -95 -248 -107 1 -6 -6 -9 -17 -6 -11 3
-26 1 -33 -4 -6 -6 -25 -13 -41 -17 -24 -6 -27 -9 -15 -17 11 -8 9 -9 -7 -4
-27 7 -106 -23 -97 -38 4 -7 0 -8 -11 -4 -10 4 -23 4 -29 0 -7 -4 -83 -8 -169
-9 -112 0 -161 -4 -172 -13 -8 -7 -21 -11 -28 -8 -8 4 -7 6 5 6 20 1 24 21 3
21 -8 0 -46 14 -85 30 -40 17 -76 28 -80 25 -5 -3 -11 -1 -13 4 -1 4 -25 18
-51 29 -26 12 -44 16 -41 10 4 -7 -6 -2 -23 10 -17 12 -36 22 -43 22 -7 0 -26
7 -43 15 -33 14 -201 74 -215 75 -4 0 -15 3 -25 6 -9 3 -33 0 -51 -6 -72 -23
-46 -96 44 -125 14 -4 52 -20 85 -35 33 -16 89 -40 124 -55 35 -15 75 -33 87
-42 13 -8 32 -12 41 -9 10 4 14 4 10 -1 -10 -10 142 -85 156 -76 6 3 7 1 3 -5
-4 -7 -2 -12 5 -12 6 0 18 -8 26 -17 8 -10 12 -13 9 -6 -4 6 -1 15 5 19 7 4 9
3 6 -3 -13 -20 38 -60 101 -78 34 -10 60 -20 57 -23 -2 -3 14 -18 36 -34 l41
-29 37 25 c20 14 54 35 76 46 25 13 31 18 15 15 -19 -5 -22 -4 -10 4 8 6 23 8
33 5 10 -3 24 0 32 6 8 7 15 9 15 4 0 -4 12 4 28 18 15 15 84 57 154 93 70 37
130 70 133 75 3 5 13 6 22 3 11 -4 14 -3 9 5 -5 8 -2 10 8 6 9 -3 16 -2 16 4
0 5 12 12 28 15 24 5 80 29 229 99 39 18 73 54 73 77 0 13 -38 37 -70 44 -15
3 -67 -9 -135 -33z m77 13 c-6 -2 -10 -9 -6 -14 3 -5 0 -9 -5 -9 -12 0 -14 13
-4 23 3 4 11 7 17 6 6 0 5 -3 -2 -6z m-1559 -10 c-7 -2 -19 -2 -25 0 -7 3 -2
5 12 5 14 0 19 -2 13 -5z m1664 -19 c2 -13 1 -15 -4 -4 -3 8 -11 19 -17 23 -7
6 -6 7 4 4 8 -2 16 -12 17 -23z m-17 -15 c0 -5 -8 -9 -17 -8 -11 0 -13 3 -5 6
6 2 9 10 6 15 -4 7 -2 8 4 4 7 -4 12 -11 12 -17z m-1630 1 c8 -5 11 -10 5 -10
-5 0 -17 5 -25 10 -8 5 -10 10 -5 10 6 0 17 -5 25 -10z m174 -29 c3 -4 -6 -6
-19 -3 -14 2 -25 6 -25 8 0 8 39 4 44 -5z m1220 -30 c-10 -10 -21 -17 -23 -15
-6 6 20 34 32 34 6 0 2 -8 -9 -19z m131 -11 c13 -6 15 -9 5 -9 -8 0 -22 4 -30
9 -18 12 -2 12 25 0z m-44 -21 c-14 -5 -28 -6 -32 -2 -4 4 6 9 24 10 30 1 31
1 8 -8z m-1103 -18 c11 -6 10 -10 -4 -15 -9 -3 -19 -4 -22 -1 -3 3 1 5 9 5 11
0 11 2 -1 10 -8 5 -10 10 -5 10 6 0 16 -4 23 -9z m812 -1 c0 -5 -2 -10 -4 -10
-3 0 -8 5 -11 10 -3 6 -1 10 4 10 6 0 11 -4 11 -10z m100 -10 c0 -6 -14 -13
-31 -17 -22 -4 -27 -8 -17 -14 9 -6 9 -9 1 -9 -25 0 -22 19 4 33 35 18 43 20
43 7z m50 0 c0 -5 -4 -10 -10 -10 -5 0 -10 5 -10 10 0 6 5 10 10 10 6 0 10 -4
10 -10z m-157 -27 c-7 -2 -19 -2 -25 0 -7 3 -2 5 12 5 14 0 19 -2 13 -5z m103
-19 c-23 -16 -40 -19 -31 -4 3 6 13 10 21 10 8 0 14 5 14 12 0 6 3 8 7 4 5 -4
-1 -14 -11 -22z m-756 -14 c0 -5 -5 -10 -11 -10 -5 0 -7 5 -4 10 3 6 8 10 11
10 2 0 4 -4 4 -10z m445 -10 c-3 -5 -14 -10 -23 -9 -14 0 -13 2 3 9 27 11 27
11 20 0z m265 -10 c0 -5 -4 -10 -10 -10 -5 0 -10 5 -10 10 0 6 5 10 10 10 6 0
10 -4 10 -10z m-447 -17 c-13 -2 -33 -2 -45 0 -13 2 -3 4 22 4 25 0 35 -2 23
-4z m392 -13 c3 -6 -1 -7 -9 -4 -18 7 -21 14 -7 14 6 0 13 -4 16 -10z m-745
-20 c-8 -5 -19 -10 -25 -10 -5 0 -3 5 5 10 8 5 20 10 25 10 6 0 3 -5 -5 -10z
m589 -63 c-2 -1 -12 -9 -22 -16 -15 -12 -17 -12 -11 3 3 9 13 16 22 16 8 0 13
-1 11 -3z m-304 -77 c-3 -5 -12 -10 -18 -10 -7 0 -6 4 3 10 19 12 23 12 15 0z
m88 -30 c3 -11 1 -20 -4 -20 -5 0 -9 9 -9 20 0 11 2 20 4 20 2 0 6 -9 9 -20z
m42 10 c-3 -5 -12 -10 -18 -10 -7 0 -6 4 3 10 19 12 23 12 15 0z"/>
<path d="M649 1150 c-71 -21 -107 -68 -115 -151 -6 -60 24 -168 61 -223 14
-20 25 -40 25 -44 0 -13 65 -82 78 -82 6 0 12 -5 12 -11 0 -5 -4 -7 -10 -4 -5
3 -10 4 -10 2 0 -12 109 -138 156 -180 30 -27 52 -53 49 -57 -3 -4 0 -32 6
-61 5 -30 12 -85 14 -123 2 -37 9 -101 16 -142 l12 -74 59 0 c64 0 64 0 72 70
3 25 7 60 10 78 15 82 15 93 6 87 -6 -4 -6 3 0 20 12 32 31 132 31 163 -1 12
8 31 19 42 29 29 38 25 10 -5 -13 -14 -21 -27 -18 -30 9 -9 119 107 130 137 5
16 14 26 18 23 13 -8 96 99 94 122 -1 7 2 11 6 8 4 -3 10 3 14 13 3 9 14 31
25 47 14 23 16 33 7 44 -9 12 -8 14 5 9 12 -5 20 6 33 43 10 26 15 53 11 59
-3 5 -1 10 4 10 16 0 13 85 -3 125 -8 18 -32 45 -53 59 -36 24 -46 26 -128 22
-96 -4 -170 -27 -254 -80 l-43 -28 -22 21 c-12 12 -26 21 -30 21 -4 0 -14 7
-23 16 -9 8 -22 13 -29 10 -8 -3 -14 -1 -14 4 0 13 -68 33 -95 27 -14 -2 -22
-1 -20 3 11 18 -69 25 -116 10z m-4 -60 c3 -5 1 -10 -4 -10 -6 0 -11 5 -11 10
0 6 2 10 4 10 3 0 8 -4 11 -10z m175 6 c0 -2 -7 -7 -16 -10 -8 -3 -12 -2 -9 4
6 10 25 14 25 6z m333 -3 c-7 -2 -19 -2 -25 0 -7 3 -2 5 12 5 14 0 19 -2 13
-5z m-443 -8 c0 -2 -10 -9 -22 -15 -22 -11 -22 -10 -4 4 21 17 26 19 26 11z
m177 -1 c-3 -3 -12 -4 -19 -1 -8 3 -5 6 6 6 11 1 17 -2 13 -5z m-13 -40 c47
-18 63 -21 75 -12 13 10 14 10 4 -1 -9 -11 -5 -18 23 -37 l34 -23 45 28 c64
41 120 54 201 47 38 -3 80 -6 93 -7 13 0 19 -4 13 -8 -8 -5 -6 -15 7 -34 15
-23 16 -38 10 -92 -5 -36 -15 -78 -23 -93 -8 -15 -24 -46 -35 -70 -25 -50 -28
-55 -99 -132 -29 -32 -49 -60 -45 -62 4 -3 2 -3 -5 -1 -7 1 -22 -2 -33 -7 -19
-11 -26 -2 -10 16 10 11 34 210 27 222 -3 5 -1 24 4 43 5 19 11 63 14 99 l4
66 -56 -27 c-81 -39 -143 -40 -210 -6 -29 15 -58 25 -64 21 -7 -4 -8 -3 -4 4
4 7 2 12 -5 12 -8 0 -10 -16 -5 -57 4 -32 11 -105 17 -162 5 -57 12 -108 15
-113 13 -20 10 -133 -3 -146 -7 -8 -11 -17 -9 -21 3 -4 -1 -8 -9 -8 -8 0 -14
3 -13 6 2 22 -4 30 -18 24 -14 -5 -13 -3 2 15 21 25 25 27 18 9 -3 -8 2 -14
10 -14 15 0 13 9 -7 35 -8 11 -12 11 -19 0 -7 -10 -8 -10 -7 2 3 26 -1 38 -14
52 -17 18 -97 143 -97 152 0 3 -8 18 -17 33 -16 23 -17 24 -24 7 -7 -16 -8
-17 -8 -2 -1 9 3 19 8 23 6 3 6 18 0 38 -17 59 -11 142 12 171 39 49 97 52
203 10z m-239 8 c-3 -3 -11 0 -18 7 -9 10 -8 11 6 5 10 -3 15 -9 12 -12z m832
-14 c-3 -8 -6 -5 -6 6 -1 11 2 17 5 13 3 -3 4 -12 1 -19z m-461 -31 c1 -9 -2
-15 -7 -11 -5 3 -7 9 -4 14 3 4 0 11 -5 13 -6 3 -5 4 1 3 7 -1 13 -10 15 -19z
m35 0 c-10 -9 -11 -8 -5 6 3 10 9 15 12 12 3 -3 0 -11 -7 -18z m-481 -58 c0
-6 -4 -7 -10 -4 -5 3 -10 11 -10 16 0 6 5 7 10 4 6 -3 10 -11 10 -16z m374
-24 c11 -8 15 -15 10 -15 -6 0 -19 7 -30 15 -10 8 -14 14 -9 14 6 0 19 -6 29
-14z m213 -17 c-3 -8 -6 -5 -6 6 -1 11 2 17 5 13 3 -3 4 -12 1 -19z m-242 2
c3 -6 -1 -7 -9 -4 -18 7 -21 14 -7 14 6 0 13 -4 16 -10z m-48 -32 c-3 -7 -5
-2 -5 12 0 14 2 19 5 13 2 -7 2 -19 0 -25z m303 -8 c0 -5 -2 -10 -4 -10 -3 0
-8 5 -11 10 -3 6 -1 10 4 10 6 0 11 -4 11 -10z m-531 -90 c0 -10 -3 -8 -9 5
-12 27 -12 43 0 25 5 -8 9 -22 9 -30z m52 -21 c8 -15 8 -19 0 -15 -10 6 -15
-6 -12 -26 0 -5 -4 -8 -10 -8 -7 0 -8 7 -4 18 5 9 8 25 9 35 0 22 3 22 17 -4z
m707 -4 c-3 -3 -9 2 -12 12 -6 14 -5 15 5 6 7 -7 10 -15 7 -18z m-31 -17 c-3
-8 -6 -5 -6 6 -1 11 2 17 5 13 3 -3 4 -12 1 -19z m-657 -69 c0 -6 -4 -7 -10
-4 -5 3 -10 11 -10 16 0 6 5 7 10 4 6 -3 10 -11 10 -16z m434 -33 c-3 -15 -8
-25 -11 -23 -2 3 -1 17 3 31 3 15 8 25 11 23 2 -3 1 -17 -3 -31z m170 -6 c-6
-5 -24 21 -24 34 0 6 6 1 14 -10 8 -10 12 -21 10 -24z m-68 -68 c1 -7 0 -8 -3
-2 -8 17 -25 11 -18 -7 5 -14 3 -15 -6 -6 -13 13 -3 36 14 30 6 -2 12 -9 13
-15z m-456 -2 c8 -5 11 -10 5 -10 -5 0 -17 5 -25 10 -8 5 -10 10 -5 10 6 0 17
-5 25 -10z m353 -81 c-9 -9 -12 -7 -10 9 1 14 5 18 11 12 7 -7 6 -14 -1 -21z
m-176 -61 c-3 -8 -6 -5 -6 6 -1 11 2 17 5 13 3 -3 4 -12 1 -19z m-30 -60 c-3
-8 -6 -5 -6 6 -1 11 2 17 5 13 3 -3 4 -12 1 -19z m146 -28 c3 -11 1 -18 -4
-14 -5 3 -9 12 -9 20 0 20 7 17 13 -6z m-16 -97 c-3 -10 -5 -4 -5 12 0 17 2
24 5 18 2 -7 2 -21 0 -30z m-113 -69 c3 -8 2 -12 -4 -9 -6 3 -10 10 -10 16 0
14 7 11 14 -7z"/>
</g>
</svg>
