<svg id="visual" viewBox="0 0 540 960" width="540" height="960" xmlns="http://www.w3.org/2000/svg" xmlns:xlink="http://www.w3.org/1999/xlink" version="1.1"><rect x="0" y="0" width="540" height="960" fill="#111111"></rect><path d="M0 624L22.5 632.7C45 641.3 90 658.7 135 661C180 663.3 225 650.7 270 632.5C315 614.3 360 590.7 405 597.7C450 604.7 495 642.3 517.5 661.2L540 680L540 961L517.5 961C495 961 450 961 405 961C360 961 315 961 270 961C225 961 180 961 135 961C90 961 45 961 22.5 961L0 961Z" fill="#979797" stroke-linecap="round" stroke-linejoin="miter"></path></svg>